PathFileType	4	(X/Y/Z)	Walk1.trc
DataRate	CameraRate	NumFrames	NumMarkers	Units	OrigDataRate	OrigDataStartFrame	OrigNumFrames
200.000000	200.000000	9	59	mm	200.000000	242	485
Frame#	Times		LFHD		RFHD		LBHD		RBHD		C7		T10		CLAV		STRN		RBack		LASI		RASI		LPSI		RPSI		RACR1		RUA1		RElbow		RElbowM		RFA1		RWRR		RWRU		RCAR		LACR1		LUA1		LElbow		LElbowM		LFA1		LWRR		LCAR		RTH1		RTH3		RTH2		RTH4		RLFC		RTB1		RTB3		RTB2		RTB4		RLMAL		RMT1		RMT5		LTH1		LTH3		LTH2		LTH4		LLFC		LTB1		LTB3		LTB2		LTB4		LLMAL		LMMAL		LMT1		LMT5		LToe		RMMAL		LWRU		RToe		LCAL		RCAL
			X1	Y1	Z1	X2	Y2	Z2	X3	Y3	Z3	X4	Y4	Z4	X5	Y5	Z5	X6	Y6	Z6	X7	Y7	Z7	X8	Y8	Z8	X9	Y9	Z9	X10	Y10	Z10	X11	Y11	Z11	X12	Y12	Z12	X13	Y13	Z13	X14	Y14	Z14	X15	Y15	Z15	X16	Y16	Z16	X17	Y17	Z17	X18	Y18	Z18	X19	Y19	Z19	X20	Y20	Z20	X21	Y21	Z21	X22	Y22	Z22	X23	Y23	Z23	X24	Y24	Z24	X25	Y25	Z25	X26	Y26	Z26	X27	Y27	Z27	X28	Y28	Z28	X29	Y29	Z29	X30	Y30	Z30	X31	Y31	Z31	X32	Y32	Z32	X33	Y33	Z33	X34	Y34	Z34	X35	Y35	Z35	X36	Y36	Z36	X37	Y37	Z37	X38	Y38	Z38	X39	Y39	Z39	X40	Y40	Z40	X41	Y41	Z41	X42	Y42	Z42	X43	Y43	Z43	X44	Y44	Z44	X45	Y45	Z45	X46	Y46	Z46	X47	Y47	Z47	X48	Y48	Z48	X49	Y49	Z49	X50	Y50	Z50	X51	Y51	Z51	X52	Y52	Z52	X53	Y53	Z53	X54	Y54	Z54	X55	Y55	Z55	X56	Y56	Z56	X57	Y57	Z57	X58	Y58	Z58	X59	Y59	Z59

242	1.21	-64.25	1595.1	-91.401	-45.924	1601.4	1.7157	-210.07	1525.9	-89.39	-189.36	1541.1	48.912	-230.71	1414.3	-20.674	-303.63	1148.4	-35.311	-93.493	1336.3	-25.328	-35.975	1231.1	-15.243	-289.43	1317	76.214	-46.333	958.56	-166.64	-51.505	971.52	127.32	-297.19	963.31	-63.427	-295.71	962.63	27.372	-165.4	1369.1	130.85	-198.74	1185.6	220.79	-257.12	1068.4	240.82	-263.64	1041.3	145.04	-261.62	921.32	255.38	-189.7	817.82	221.21	-247.14	812.54	262.27	-186.66	764.01	271.51	-151.06	1372.7	-180.67	-129.08	1197.5	-278.27	-137.75	1070.9	-314.19	-175.88	1033.6	-249.11	-81.583	942.51	-321.08	25.008	874.12	-261.23	56.812	835.62	-300.23	-91.441	742.91	206.7	-16.534	591.3	169.03	-2.5435	694.13	183.31	-55.096	665.8	186.36	16.412	516.71	149.03	62.865	356.51	93.114	15.528	190.41	92.767	7.6366	281.68	143.91	38.797	272.18	89.666	-47.338	84.841	113.55	71.002	49.069	75.465	30.886	39.586	138.89	-160.17	751.29	-239.02	-191.53	596.91	-171.96	-120.1	672.81	-186.09	-176.12	676.86	-201.28	-211.47	476.11	-136.59	-188.05	329.65	-55.909	-233.53	163.24	-52.802	-233.7	249.64	-109.97	-211.64	246.15	-52.811	-293.7	62.526	-72.546	-277.94	65.683	10.971	-178.93	29.634	-8.7074	-210.97	23.373	-88.185	-110.27	24.262	-37.164	-19.398	89.701	34.483	-16.358	844.45	-315.15	122.07	57.975	114.96	-358.4	37.494	-36.911	-107.51	51.377	67.083
243	1.215	-58.071	1594.3	-91.141	-40.003	1600.5	1.8693	-204.33	1525.3	-89.422	-183.75	1540.6	48.914	-225.34	1413.5	-20.71	-298.04	1147.6	-35.318	-87.911	1335.4	-25.372	-30.479	1230.3	-15.545	-284.06	1316.3	76.151	-41.238	957.68	-166.61	-45.614	970.88	127.29	-291.7	962.49	-62.421	-290.3	962.21	27.616	-159.83	1368.6	130.84	-193.86	1184.9	220.97	-252.73	1068	240.43	-258.48	1040.5	145.05	-257.68	920.76	254.92	-184.4	817.43	221.94	-243	811.86	261.92	-182.76	763.31	271.77	-145.4	1372.2	-180.5	-122.24	1197.2	-278.1	-130.24	1070.5	-314.12	-167.9	1032.9	-249.1	-72.554	942.73	-320.9	33.797	875.36	-260.85	66.636	837.05	-299.55	-84.989	742.82	207.16	-10.843	590.84	168.16	3.726	693.69	183.22	-48.778	665.35	186.42	21.801	516.09	148.06	72.305	357.14	92.627	31.589	189.26	92.886	20.555	280.24	143.46	51.816	271.83	89.619	-27.549	81.92	114.13	92.34	49.782	76.632	52.198	38.887	139.73	-155.98	750.71	-238.89	-188.22	596.64	-171.78	-116.31	671.53	-185.64	-172.46	676.5	-201.24	-209.05	475.97	-136.47	-186.72	329.35	-55.734	-232.88	163.24	-52.689	-232.83	249.56	-109.61	-210.45	246.02	-52.78	-293.6	62.843	-72.3	-277.74	65.9	11.2	-178.83	29.619	-8.7207	-210.96	23.39	-88.133	-110.05	24.163	-37.343	0.78242	87.194	34.951	-6.384	845.13	-314.56	142.64	60.258	116.18	-358.32	37.973	-36.473	-86.095	46.438	67.152
244	1.22	-52.279	1593.5	-90.843	-34.195	1599.5	2.0662	-198.51	1524.8	-89.321	-178.14	1540	49.054	-219.93	1412.9	-20.697	-292.56	1147	-35.03	-82.295	1334.8	-25.251	-25.022	1229.7	-15.617	-278.3	1315.6	76.122	-36.045	956.44	-166.79	-39.699	970.24	127.31	-286.2	961.76	-61.928	-284.87	961.75	28.051	-154.27	1367.8	130.82	-189.22	1184	221.04	-248.29	1067.2	239.77	-252.93	1039.8	144.83	-253.67	920.27	254.64	-179.22	816.84	222.33	-238.8	811.22	261.8	-178.8	762.63	272.04	-139.91	1371.6	-180.37	-115.35	1196.8	-278.06	-122.57	1070.1	-314.19	-159.92	1032.1	-249.24	-63.727	942.82	-320.85	42.506	876.36	-260.21	76.391	838.44	-299.01	-78.493	742.52	207.49	-4.9266	590.19	167.56	10.15	693.21	182.87	-42.509	664.61	186.23	27.406	515.42	147.1	81.653	357.69	92.265	47.929	188.47	93.024	33.265	279.26	143.01	64.822	271.82	89.371	-7.796	79.268	114.81	113.46	50.874	77.672	73.304	38.864	140.51	-151.62	750.16	-238.75	-184.85	596.17	-171.44	-112.59	670.4	-185.04	-168.65	675.97	-200.9	-206.47	475.76	-136.2	-184.8	329.24	-55.701	-232.22	163.27	-52.73	-231.8	249.5	-109.44	-209.28	245.87	-52.764	-293.43	63.126	-72.026	-277.54	66.189	11.451	-178.71	29.852	-9.084	-210.97	23.396	-88.008	-109.94	24.041	-37.514	20.62	85.263	35.554	3.5705	845.72	-313.85	163.14	63.029	117.32	-358.23	38.463	-36.025	-64.908	41.983	67.147
245	1.225	-46.343	1592.8	-90.721	-28.36	1598.7	2.3762	-192.67	1524.2	-88.983	-172.28	1539.2	49.234	-214.18	1412.2	-20.463	-286.96	1146.3	-34.885	-76.492	1334	-25.166	-19.229	1228.9	-15.909	-272.8	1314.7	76.307	-30.898	955.47	-166.76	-33.524	969.7	127.42	-280.93	961.18	-61.295	-278.76	960.82	28.667	-148.63	1367	130.97	-184.76	1183.4	221.07	-243.61	1066.8	239.94	-247.88	1039.2	144.51	-249.48	919.76	254.32	-174.63	815.97	223.08	-234.71	810.56	261.56	-175.02	761.99	272.33	-134.07	1370.9	-180.29	-108.41	1196.4	-277.76	-115.05	1069.7	-314.1	-152.1	1031.3	-249.46	-54.861	942.87	-320.33	51.833	877.34	-259.66	85.859	839.73	-298.38	-71.857	741.81	207.88	0.71425	589.63	167.06	16.168	692.47	182.49	-36.634	663.91	186.16	32.47	514.56	146.25	91.124	358.53	91.739	63.86	188.19	93.012	46.124	278.49	142.8	77.796	272.12	89.078	12.05	77.07	115	134.33	52.303	78.679	94.301	39.176	141.37	-147.02	749.6	-238.5	-181.64	595.85	-171.21	-108.65	669.43	-184.7	-164.76	675.18	-200.45	-203.88	475.56	-135.94	-183.17	328.95	-55.597	-231.59	163.2	-52.45	-230.74	249.47	-109.23	-208.06	245.77	-52.691	-293.31	63.345	-71.757	-277.16	66.467	11.852	-178.59	29.687	-8.7847	-210.97	23.417	-87.909	-109.85	23.976	-37.774	40.47	83.767	35.981	13.154	846.24	-313.05	183.28	66.08	118.48	-358.04	38.92	-35.689	-43.436	37.708	67.701
246	1.23	-40.343	1591.9	-90.507	-22.27	1597.6	2.6921	-186.85	1523.5	-88.964	-166.36	1538.6	49.186	-208.15	1411.5	-20.441	-281.43	1145.7	-34.53	-71.042	1333.2	-25.013	-13.573	1228.4	-16.198	-267.11	1313.9	76.363	-25.635	954.3	-166.65	-27.468	969.02	127.46	-275.45	960.34	-60.627	-273.24	960.18	29.37	-142.91	1366.3	131.14	-179.9	1182.7	221.16	-239.05	1066.1	239.7	-242.7	1038.7	144.34	-244.99	919.1	253.94	-170.13	815.18	223.67	-230.79	809.86	261.11	-171.2	761.35	272.78	-128.61	1370.2	-180.19	-101.4	1196.1	-277.6	-107.32	1069.2	-314.01	-144.26	1030.6	-249.43	-46.22	942.73	-320.21	61.228	878.39	-259.16	95.435	841.03	-297.81	-65.275	741.21	208.05	6.5879	588.77	166.47	22.509	691.65	182.12	-30.374	663.53	186.26	37.817	513.28	145.61	100.61	359.38	91.2	79.34	188.02	93.195	58.309	277.84	142.68	90.308	272.53	88.802	31.992	75.125	115.17	154.84	54.358	79.441	114.98	39.777	141.87	-142.52	748.94	-238.24	-178.09	595.52	-171.17	-104.64	668.68	-184.69	-160.65	674.94	-200.4	-201.25	475.34	-135.66	-181.71	328.6	-55.413	-230.7	163.16	-52.104	-229.5	249.4	-108.9	-206.85	245.49	-52.34	-293.15	63.593	-71.464	-276.63	66.709	12.281	-178.41	29.636	-8.5555	-210.97	23.433	-87.767	-109.73	23.904	-38.034	60.203	82.62	36.236	22.549	846.51	-312.27	203.09	69.597	119.3	-357.82	39.359	-35.177	-22.496	33.973	67.844
247	1.235	-34.547	1590.9	-90.244	-16.503	1596.8	2.9758	-181.11	1523.1	-88.734	-160.94	1538	49.364	-202.54	1410.7	-20.095	-275.69	1144.8	-34.402	-65.438	1332.2	-25.14	-7.613	1227.7	-16.52	-261.46	1313.1	76.573	-20.28	953.17	-166.57	-21.268	968.34	127.63	-269.83	959.53	-60.116	-267.29	959.63	29.604	-137.27	1365.4	131.33	-174.89	1182.1	221.31	-234.38	1065.2	238.89	-237.42	1038.1	144.19	-240.75	918.44	253.81	-165.6	814.4	223.88	-226.8	809.14	261.06	-167.34	760.25	273.31	-123.09	1369.4	-179.97	-94.558	1195.6	-277.4	-99.327	1068.8	-313.92	-136.53	1029.8	-249.37	-37.436	942.85	-319.84	69.975	879.25	-258.52	104.7	842.12	-297.07	-58.851	740.62	208.25	11.686	587.94	165.93	28.686	690.72	181.82	-24.267	662.78	186.2	42.683	512.26	144.83	109.69	360.48	90.713	94.775	188.23	93.266	70.45	277.33	142.54	102.52	273	88.651	51.465	73.435	115.48	175.1	56.862	79.827	135.54	41.077	142.35	-138.37	748.29	-238.63	-174.38	595.08	-170.85	-100.56	668.01	-184.39	-156.6	674.52	-200.1	-198.6	475.1	-135.3	-179.67	328.26	-55.236	-229.61	163.13	-51.823	-228.43	249.3	-108.54	-205.64	245.41	-52	-292.93	63.91	-71.115	-276	66.903	12.666	-178.25	29.62	-8.4512	-211.01	23.469	-87.587	-109.51	23.697	-38.295	79.349	82.094	36.338	31.986	847.01	-311.65	222.65	73.587	119.86	-357.46	40.002	-34.598	-1.8038	30.767	67.782
248	1.24	-28.479	1589.9	-89.942	-10.7	1595.6	3.2555	-175.26	1522.4	-88.595	-155.24	1537.1	49.569	-197.07	1409.8	-20.045	-270.1	1143.8	-34.077	-59.769	1331.5	-25.164	-1.7283	1227	-16.548	-256	1312.2	76.777	-15.014	952.09	-166.4	-15.084	967.52	127.79	-264.37	958.98	-59.724	-261.31	958.8	30.365	-131.52	1364.5	131.44	-169.78	1181.5	221.5	-229.5	1064.4	239.06	-232.12	1037.3	143.89	-236.3	917.69	253.61	-161.05	813.65	224.27	-222.61	808.44	260.79	-163.13	759.56	273.59	-117.32	1368.8	-179.73	-88.036	1195.1	-277.11	-91.496	1068.3	-313.79	-129	1029	-249.63	-29.07	942.77	-319.39	79.18	880.05	-257.96	114.17	843.04	-296.32	-52.398	739.84	208.49	16.912	586.94	165.15	34.572	689.44	181.44	-18.511	661.78	186.07	47.308	511.13	144.16	118.63	361.33	90.359	109.82	188.7	93.299	82.463	277.04	142.21	114.59	273.59	88.393	70.649	72.553	115.48	195.01	59.738	79.795	155.84	42.711	142.31	-133.78	747.56	-238.47	-170.74	594.65	-170.5	-96.421	667.04	-184	-152.44	673.71	-199.73	-195.75	474.8	-134.88	-178.13	327.77	-54.887	-228.72	163.16	-51.491	-227.06	249.28	-108.24	-204	245.34	-51.914	-292.75	64.411	-70.69	-275.51	67.074	13.078	-178.07	29.614	-8.4151	-211	23.506	-87.366	-109.32	23.538	-38.536	98.071	81.926	36.383	41.255	847.53	-311.08	242.04	78.207	119.58	-357.26	40.731	-33.861	18.992	28.093	67.705
249	1.245	-22.72	1589	-89.689	-4.6233	1594.5	3.6197	-169.41	1521.8	-88.319	-149.3	1536.4	49.687	-191.63	1409	-20.094	-264.39	1143	-33.771	-54.271	1330.5	-25.037	3.8909	1226.2	-16.851	-250.26	1311.4	76.892	-9.2006	951.08	-166.2	-8.8714	966.73	127.92	-258.84	958.24	-59.161	-255.29	958.09	30.908	-125.76	1363.6	131.65	-164.99	1180.5	221.58	-224.84	1063.6	238.95	-226.7	1036.3	143.81	-231.71	916.83	253.49	-156.66	812.75	224.61	-218.52	807.79	260.71	-158.91	758.97	273.85	-111.62	1367.9	-179.55	-81.462	1194.5	-276.8	-83.697	1067.9	-313.74	-121.51	1028.3	-250.03	-20.29	942.78	-319.27	87.742	880.75	-257.27	123.36	844.08	-295.66	-45.74	739.1	208.72	21.904	585.82	164.55	40.527	687.96	180.85	-12.742	660.98	185.79	52.235	509.8	143.6	127.29	362.16	90.072	124.56	189.29	93.221	94.262	276.93	142.18	126.39	274.4	88.241	89.304	71.503	115.26	214.15	62.906	79.465	175.82	44.532	142.14	-128.82	746.83	-237.94	-166.86	594.22	-170.32	-92.157	666.21	-183.75	-148.22	673.11	-199.47	-192.97	474.52	-134.59	-176.25	327.4	-54.421	-228.03	163.21	-51.111	-225.73	249.24	-107.86	-202.55	245.37	-51.839	-292.48	64.771	-70.033	-275.07	67.33	13.482	-177.86	29.644	-8.3786	-211.06	23.529	-87.129	-109.13	23.402	-38.749	116.6	82.214	36.197	50.166	847.94	-310.39	260.77	83.03	118.78	-357.18	41.442	-33.271	39.204	25.911	67.718
250	1.25	-16.61	1587.9	-89.325	1.3007	1593.5	3.7761	-163.73	1521	-88.105	-143.62	1535.7	50.247	-185.99	1408.2	-19.809	-258.83	1142.3	-33.472	-48.395	1329.8	-24.795	9.5363	1225.6	-17.133	-244.52	1310.5	77.076	-2.9348	950.26	-165.79	-2.6162	965.94	128.2	-253.2	957.4	-58.23	-249.25	957.27	31.59	-119.94	1362.6	131.7	-159.83	1179.7	221.58	-219.7	1062.9	238.73	-221.3	1035.4	143.76	-227.24	916.05	253.43	-152.12	811.78	225.07	-214.1	807	260.54	-154.48	758.03	274.3	-106.17	1367.1	-179.42	-74.665	1193.9	-276.65	-76.026	1067.4	-313.49	-113.9	1027.5	-249.92	-11.886	942.73	-318.88	96.647	881.49	-256.66	132.33	845.12	-295.19	-39.289	738.19	208.84	26.993	584.44	164.11	46.368	686.48	180.27	-6.7632	659.79	185.8	57.202	508.11	143.28	135.84	363.04	89.821	138.87	190.24	93.269	105.66	276.76	142.13	137.89	275.38	88.203	107.52	71.056	114.85	232.69	66.331	79.057	195.36	46.656	141.83	-123.71	746.04	-237.56	-163.02	593.83	-170.08	-87.891	665.33	-183.45	-143.82	672.48	-199.15	-190.07	474.34	-134.28	-174.23	327.21	-54.144	-227.3	163.15	-50.866	-224.38	249.28	-107.43	-201.22	245.22	-51.416	-292.28	65.116	-69.453	-274.73	67.661	13.824	-177.7	29.671	-8.2878	-211.13	23.568	-86.887	-108.99	23.252	-38.917	134.58	82.732	36.164	59.327	848.25	-309.83	278.99	87.821	117.86	-357.03	42.176	-32.711	58.874	23.992	68.178
